<svg width="960" height="960" viewBox="0 0 960 960" fill="none" xmlns="http://www.w3.org/2000/svg">
  <defs>
    <linearGradient id="bg" x1="120" y1="110" x2="850" y2="860" gradientUnits="userSpaceOnUse">
      <stop stop-color="#F9B5A8"/>
      <stop offset="0.48" stop-color="#C7E6EA"/>
      <stop offset="1" stop-color="#8AA9B7"/>
    </linearGradient>
    <linearGradient id="glass" x1="250" y1="190" x2="728" y2="728" gradientUnits="userSpaceOnUse">
      <stop stop-color="white" stop-opacity="0.68"/>
      <stop offset="1" stop-color="white" stop-opacity="0.12"/>
    </linearGradient>
  </defs>
  <rect width="960" height="960" rx="120" fill="#231C1A"/>
  <circle cx="480" cy="480" r="348" fill="url(#bg)"/>
  <path d="M480 286C539.647 286 588 334.353 588 394C588 442.376 556.19 483.323 512.351 497.209C621.2 514.978 706 608.759 706 722V744H254V722C254 608.759 338.8 514.978 447.649 497.209C403.81 483.323 372 442.376 372 394C372 334.353 420.353 286 480 286Z" fill="#2E2421" fill-opacity="0.75"/>
  <path d="M480 272C547.379 272 602 326.621 602 394C602 443.651 572.334 486.372 529.74 505.645C626.603 529.259 696 617.007 696 721V730H264V721C264 617.007 333.397 529.259 430.26 505.645C387.666 486.372 358 443.651 358 394C358 326.621 412.621 272 480 272Z" stroke="url(#glass)" stroke-width="18"/>
  <circle cx="725" cy="251" r="71" fill="white" fill-opacity="0.17"/>
  <circle cx="244" cy="726" r="56" fill="white" fill-opacity="0.12"/>
  <path d="M202 182C284.812 126.56 380.415 97 480 97C579.585 97 675.188 126.56 758 182" stroke="white" stroke-opacity="0.22" stroke-width="18" stroke-linecap="round"/>
  <path d="M305 789H655" stroke="white" stroke-opacity="0.2" stroke-width="18" stroke-linecap="round"/>
  <text x="480" y="846" text-anchor="middle" fill="white" fill-opacity="0.88" font-family="Arial, sans-serif" font-size="44" font-weight="700" letter-spacing="6">TU FOTO AQUI</text>
</svg>
