<svg width="960" height="1080" viewBox="0 0 960 1080" fill="none" xmlns="http://www.w3.org/2000/svg">
  <defs>
    <linearGradient id="bg" x1="116" y1="92" x2="864" y2="972" gradientUnits="userSpaceOnUse">
      <stop stop-color="#F5C5D7"/>
      <stop offset="0.5" stop-color="#D6EAF4"/>
      <stop offset="1" stop-color="#A8B9D4"/>
    </linearGradient>
    <linearGradient id="sheen" x1="238" y1="170" x2="734" y2="896" gradientUnits="userSpaceOnUse">
      <stop stop-color="white" stop-opacity="0.84"/>
      <stop offset="1" stop-color="white" stop-opacity="0.14"/>
    </linearGradient>
  </defs>
  <rect width="960" height="1080" rx="144" fill="#1F1A21"/>
  <rect x="88" y="84" width="784" height="912" rx="136" fill="url(#bg)"/>
  <circle cx="480" cy="404" r="136" fill="#2A2A34" fill-opacity="0.54"/>
  <path d="M480 304C538.542 304 586 351.458 586 410C586 458.542 553.526 499.5 509.2 513.092C609.643 531.984 682 621.397 682 727V768H278V727C278 621.397 350.357 531.984 450.8 513.092C406.474 499.5 374 458.542 374 410C374 351.458 421.458 304 480 304Z" fill="#3A3944" fill-opacity="0.72"/>
  <path d="M480 288C547.379 288 602 342.621 602 410C602 461.524 570.033 505.583 524.826 523.348C615.529 549.592 680 632.965 680 728V742H280V728C280 632.965 344.471 549.592 435.174 523.348C389.967 505.583 358 461.524 358 410C358 342.621 412.621 288 480 288Z" stroke="url(#sheen)" stroke-width="18"/>
  <path d="M238 220C316.553 163.545 396.952 135.318 480 135.318C563.048 135.318 643.447 163.545 722 220" stroke="white" stroke-opacity="0.18" stroke-width="18" stroke-linecap="round"/>
  <path d="M298 860H662" stroke="white" stroke-opacity="0.14" stroke-width="18" stroke-linecap="round"/>
  <circle cx="730" cy="268" r="60" fill="white" fill-opacity="0.14"/>
  <circle cx="250" cy="792" r="46" fill="white" fill-opacity="0.1"/>
</svg>
